<svg width="48" height="48" viewBox="0 0 48 48" fill="none" xmlns="http://www.w3.org/2000/svg">
<rect width="48" height="48" rx="24" fill="#706FE5"/>
<path d="M30.7812 24.75C30.7812 21.0039 27.7461 17.9688 24 17.9688C20.2539 17.9688 17.2188 21.0039 17.2188 24.75C17.2188 28.1406 19.6797 30.957 22.9336 31.4492V26.7188H21.2109V24.75H22.9336V23.2734C22.9336 21.5781 23.9453 20.6211 25.4766 20.6211C26.2422 20.6211 27.0078 20.7578 27.0078 20.7578V22.4258H26.1602C25.3125 22.4258 25.0391 22.9453 25.0391 23.4922V24.75H26.9258L26.625 26.7188H25.0391V31.4492C28.293 30.957 30.7812 28.1406 30.7812 24.75Z" fill="white"/>
</svg>
