<svg width="48" height="48" viewBox="0 0 48 48" fill="none" xmlns="http://www.w3.org/2000/svg">
<rect width="48" height="48" rx="24" fill="#706FE5"/>
<path d="M22.7305 28.6328C22.7305 28.5781 22.6758 28.5234 22.5938 28.5234C22.5117 28.5234 22.457 28.5781 22.457 28.6328C22.457 28.6875 22.5117 28.7422 22.5938 28.7148C22.6758 28.7148 22.7305 28.6875 22.7305 28.6328ZM21.8828 28.4961C21.8828 28.5508 21.9375 28.6328 22.0195 28.6328C22.0742 28.6602 22.1562 28.6328 22.1836 28.5781C22.1836 28.5234 22.1562 28.4688 22.0742 28.4414C21.9922 28.4141 21.9102 28.4414 21.8828 28.4961ZM23.1133 28.4688C23.0312 28.4688 22.9766 28.5234 22.9766 28.6055C22.9766 28.6602 23.0586 28.6875 23.1406 28.6602C23.2227 28.6328 23.2773 28.6055 23.25 28.5508C23.25 28.4961 23.168 28.4414 23.1133 28.4688ZM24.8906 17.9688C21.1172 17.9688 18.2188 20.8672 18.2188 24.6406C18.2188 27.6758 20.1055 30.2734 22.8398 31.2031C23.1953 31.2578 23.3047 31.0391 23.3047 30.875C23.3047 30.6836 23.3047 29.7539 23.3047 29.1797C23.3047 29.1797 21.3906 29.5898 20.9805 28.3594C20.9805 28.3594 20.6797 27.5664 20.2422 27.375C20.2422 27.375 19.6133 26.9375 20.2695 26.9375C20.2695 26.9375 20.9531 26.9922 21.3359 27.6484C21.9375 28.7148 22.9219 28.4141 23.332 28.2227C23.3867 27.7852 23.5508 27.4844 23.7695 27.293C22.2383 27.1289 20.6797 26.9102 20.6797 24.2852C20.6797 23.5195 20.8984 23.1641 21.3359 22.6719C21.2539 22.4805 21.0352 21.7695 21.418 20.8125C21.9648 20.6484 23.3047 21.5508 23.3047 21.5508C23.8516 21.3867 24.4258 21.332 25 21.332C25.6016 21.332 26.1758 21.3867 26.7227 21.5508C26.7227 21.5508 28.0352 20.6211 28.6094 20.8125C28.9922 21.7695 28.7461 22.4805 28.6914 22.6719C29.1289 23.1641 29.4023 23.5195 29.4023 24.2852C29.4023 26.9102 27.7891 27.1289 26.2578 27.293C26.5039 27.5117 26.7227 27.9219 26.7227 28.5781C26.7227 29.4805 26.6953 30.6289 26.6953 30.8477C26.6953 31.0391 26.832 31.2578 27.1875 31.1758C29.9219 30.2734 31.7812 27.6758 31.7812 24.6406C31.7812 20.8672 28.6914 17.9688 24.8906 17.9688ZM20.8711 27.4023C20.8164 27.4297 20.8438 27.5117 20.8711 27.5664C20.9258 27.5938 20.9805 27.6211 21.0352 27.5938C21.0625 27.5664 21.0625 27.4844 21.0078 27.4297C20.9531 27.4023 20.8984 27.375 20.8711 27.4023ZM20.5703 27.1836C20.543 27.2383 20.5703 27.2656 20.625 27.293C20.6797 27.3203 20.7344 27.3203 20.7617 27.2656C20.7617 27.2383 20.7344 27.2109 20.6797 27.1836C20.625 27.1562 20.5977 27.1562 20.5703 27.1836ZM21.4453 28.168C21.418 28.1953 21.418 28.2773 21.5 28.332C21.5547 28.3867 21.6367 28.4141 21.6641 28.3594C21.6914 28.332 21.6914 28.25 21.6367 28.1953C21.582 28.1406 21.5 28.1133 21.4453 28.168ZM21.1445 27.7578C21.0898 27.7852 21.0898 27.8672 21.1445 27.9219C21.1992 27.9766 21.2539 28.0039 21.3086 27.9766C21.3359 27.9492 21.3359 27.8672 21.3086 27.8125C21.2539 27.7578 21.1992 27.7305 21.1445 27.7578Z" fill="white"/>
</svg>
