<svg width="374" height="132" viewBox="0 0 374 132" fill="none" xmlns="http://www.w3.org/2000/svg">
<path d="M62.98 58.3164V47.7564H68.56C72.64 47.7564 74.38 49.7964 74.38 53.0364C74.38 56.2764 72.64 58.3164 68.56 58.3164H62.98ZM84.82 53.0364C84.82 45.2964 79.66 39.4764 69.34 39.4764H52.72V81.5964H62.98V66.4764H69.34C80.08 66.4764 84.82 59.9964 84.82 53.0364ZM100.621 66.0564C100.621 60.2964 103.441 58.6164 108.301 58.6164H111.121V47.7564C106.621 47.7564 102.961 50.1564 100.621 53.6964V48.1164H90.3614V81.5964H100.621V66.0564ZM148.985 64.8564C148.985 54.2364 141.425 47.6364 131.585 47.6364C121.805 47.6364 114.185 54.2364 114.185 64.8564C114.185 75.4764 121.625 82.0764 131.465 82.0764C141.305 82.0764 148.985 75.4764 148.985 64.8564ZM124.625 64.8564C124.625 59.1564 127.865 56.5164 131.585 56.5164C135.185 56.5164 138.545 59.1564 138.545 64.8564C138.545 70.4964 135.125 73.1964 131.465 73.1964C127.745 73.1964 124.625 70.4964 124.625 64.8564ZM152.589 64.7964C152.589 75.3564 159.129 82.0764 167.349 82.0764C172.269 82.0764 175.809 79.8564 177.669 76.7964V81.5964H187.929V37.1964H177.669V52.7364C175.629 49.6764 171.789 47.6364 167.349 47.6364C159.129 47.6364 152.589 54.2364 152.589 64.7964ZM177.669 64.8564C177.669 70.1964 174.249 73.1364 170.349 73.1364C166.509 73.1364 163.029 70.1364 163.029 64.7964C163.029 59.4564 166.509 56.5764 170.349 56.5764C174.249 56.5764 177.669 59.5164 177.669 64.8564ZM228.611 48.1164H218.351V66.2964C218.351 70.8564 215.831 73.3764 211.871 73.3764C208.031 73.3764 205.451 70.8564 205.451 66.2964V48.1164H195.251V67.6764C195.251 76.6164 200.471 81.9564 208.211 81.9564C212.711 81.9564 216.311 79.9164 218.351 77.0364V81.5964H228.611V48.1164ZM234.141 64.8564C234.141 75.4764 241.101 82.0764 250.941 82.0764C259.341 82.0764 265.281 77.2164 267.021 69.4764H256.101C255.201 71.9364 253.581 73.3164 250.761 73.3164C247.101 73.3164 244.581 70.4364 244.581 64.8564C244.581 59.2764 247.101 56.3964 250.761 56.3964C253.581 56.3964 255.261 57.8964 256.101 60.2364H267.021C265.281 52.2564 259.341 47.6364 250.941 47.6364C241.101 47.6364 234.141 54.2964 234.141 64.8564ZM274.329 69.9564C274.329 78.6564 279.189 81.5964 286.149 81.5964H291.369V72.8964H287.709C285.429 72.8964 284.589 72.0564 284.589 70.0764V56.6364H291.309V48.1164H284.589V39.9564H274.329V48.1164H270.249V56.6364H274.329V69.9564ZM324.464 71.8764C324.284 59.3964 306.164 63.1764 306.164 57.8364C306.164 56.2164 307.484 55.2564 309.884 55.2564C312.764 55.2564 314.504 56.7564 314.804 59.0364H324.284C323.624 52.4364 318.824 47.6364 310.184 47.6364C301.424 47.6364 296.564 52.3164 296.564 58.0164C296.564 70.3164 314.804 66.4164 314.804 71.8164C314.804 73.3164 313.424 74.5164 310.784 74.5164C307.964 74.5164 305.864 72.9564 305.624 70.6164H295.484C295.964 77.0964 301.964 82.0764 310.904 82.0764C319.304 82.0764 324.464 77.6964 324.464 71.8764Z" fill="#706FE5"/>
<rect x="15" y="15" width="346" height="101" stroke="#706FE5" stroke-width="8"/>
<circle cx="14" cy="118" r="10" fill="white" stroke="#706FE5" stroke-width="8"/>
<circle cx="360" cy="118" r="10" fill="white" stroke="#706FE5" stroke-width="8"/>
<circle cx="14" cy="14" r="10" fill="white" stroke="#706FE5" stroke-width="8"/>
<circle cx="360" cy="14" r="10" fill="white" stroke="#706FE5" stroke-width="8"/>
</svg>
